<svg xmlns="http://www.w3.org/2000/svg" width="512" height="512" viewBox="0 0 512 512" fill="#fff"><path d="M227.682 380.79c0 14.852-12.04 26.89-26.89 26.89S173.9 395.643 173.9 380.79s12.04-26.89 26.89-26.89 26.892 12.038 26.892 26.89zM389.61 105.9l-59.18 188.165H159.337L94.417 144.4h-44l82.915 189.665h226.345L418.855 145.9h29.98l12.746-40h-71.97zm-99.934 248c-14.852 0-26.89 12.038-26.89 26.89s12.038 26.89 26.89 26.89 26.89-12.038 26.89-26.89-12.04-26.89-26.89-26.89zM207.85 192.873h-35.128l70.717 70.838 70.71-70.83h-35.13s-9.47-96.85-124.47-124.555c67.5 44.207 53.294 124.555 53.294 124.555z"/></svg>